<?xml version="1.0" encoding="UTF-8"?>
<!DOCTYPE svg PUBLIC "-//W3C//DTD SVG 1.1//EN" "http://www.w3.org/Graphics/SVG/1.1/DTD/svg11.dtd">
<!-- Creator: CorelDRAW -->
<svg xmlns="http://www.w3.org/2000/svg" xml:space="preserve" width="4in" height="2.96486in" style="shape-rendering:geometricPrecision; text-rendering:geometricPrecision; image-rendering:optimizeQuality; fill-rule:evenodd; clip-rule:evenodd"
viewBox="0 0 1.42858 1.05888"
 xmlns:xlink="http://www.w3.org/1999/xlink">
 <defs>
  <style type="text/css">
   <![CDATA[
    .fil0 {fill:#DA251D}
   ]]>
  </style>
 </defs>
 <g id="Layer_x0020_1">
  <metadata id="CorelCorpID_0Corel-Layer"/>
  <g id="_331416968">
   <path id="_331417136" class="fil0" d="M0.751168 0.400067l-0.0212489 -0.0647658 -0.145978 0 -9.08073e-005 -0.00799104 0.15188 -0.00105942 0.0120269 0.0363532 0.0215112 -0.146775 0.00638678 -7.06279e-005 0.0255168 0.115951 0.0147007 -0.0351222 8.07176e-005 0.00704261 0.0263139 0.0283621 0.00720404 -0.00566032 0.00574104 -0.0335079 0.00336996 -0.00208857 0.0189283 0.037685 0.00349104 -0.0020583 0.00584193 0.0268588 0.0131671 -0.0916851 0.00648768 -0.000121076 0.0118655 0.0632321 0.0266671 0.0018565 0.0090101 0.0206133 0.0172534 -0.0463521 0.00335987 8.07176e-005 0.0168296 0.0253251c0.0293913,0 0.0587927,0 0.088194,0 0.0131771,0 0.113489,0.00913118 0.0516088,0.00913118l-0.130682 0c-0.0264653,0 -0.0122388,-0.00446974 -0.0272321,-0.0151547l-0.018898 0.0497321 -0.00438902 -0.000181615 -0.0108262 -0.034305 -0.0263442 -0.000201794 -0.00921189 -0.0361817 -0.0150034 0.104247 -0.00505494 -0.000232063 -0.0172029 -0.0811111 -0.00585202 0.00115023 -0.0120572 0.0122388 -0.0304103 0 -0.00454036 -0.00197758 -0.0118049 0.0271312 -0.0051861 -0.000131166 -0.0235695 -0.106749 -0.0218543 0.146492zm0.112833 -0.316938c-0.0502971,-0.031722 -0.0471189,-0.0558969 -0.126807,-0.074462 -0.0571581,-0.0133184 -0.111774,-0.00272422 -0.162152,0.0257691 -0.0964878,0.0545853 -0.124396,0.17771 -0.0855102,0.276639 0.0488644,0.124295 0.270747,0.326573 0.377254,0.416553 0.111794,-0.133941 0.313699,-0.245906 0.376709,-0.420125 0.0377859,-0.104519 0.00748656,-0.219007 -0.0909586,-0.276205 -0.117838,-0.0684889 -0.203741,-0.0125112 -0.288535,0.0518308z"/>
   <path id="_331417064" class="fil0" d="M0.106446 0.803665c0.0122893,0.0256077 0.114922,0.178184 0.13384,0.181625 0.0141962,0.00257287 0.100927,-0.0105841 0.143627,-0.00574104 0.0424272,0.00481279 0.0904743,0.0165673 0.132871,0.0250931 0.232931,0.0468465 0.285135,0.101684 0.503022,-0.017546 0.056129,-0.0307029 0.389785,-0.199009 0.404607,-0.231881 0.0224496,-0.0497927 -0.0515584,-0.0625763 -0.0846122,-0.0594989 -0.0306525,0.00285538 -0.0895864,0.0261929 -0.121369,0.0368476 -0.0787299,0.0264047 -0.157964,0.0520225 -0.236079,0.0802333 0.0208251,0.0318229 0.0728678,0.0615774 0.0187971,0.103954 -0.0282007,0.0220964 -0.0978701,0.0329025 -0.134365,0.0329025l-0.0212893 0 -0.167711 -0.017435 0.000433857 -0.00385426c0.0677826,0 0.189252,0.00689126 0.2486,-0.00688117 0.10463,-0.0242859 0.0808487,-0.0879216 -0.0121379,-0.107929 -0.07312,-0.0157298 -0.145332,-0.0209664 -0.216363,-0.0391077 -0.0715864,-0.0182926 -0.143788,-0.037685 -0.217786,-0.037685l-0.0152052 0c-0.144505,0 -0.242001,0.055685 -0.35888,0.0669048z"/>
   <path id="_331416992" class="fil0" d="M0.083805 0.835427c-0.0322366,-0.0452119 -0.0249922,-0.0378465 -0.083805,-0.0378465 -0.000565023,0.0550494 0.0229742,0.151799 0.0399148,0.206435 0.0192713,0.0621929 0.00943387,0.0489552 0.0695584,0.0490359 0.0240639,3.02691e-005 0.102027,0.00295628 0.119876,-0.00178588 0.000534754,-0.011361 -0.0819283,-0.124779 -0.09561,-0.144111 -0.0167085,-0.0235998 -0.032963,-0.0479362 -0.0499339,-0.0717277z"/>
  </g>
 </g>
</svg>
