<svg id="Capa_1" enable-background="new 0 0 512 512" height="512" viewBox="0 0 512 512" width="512" xmlns="http://www.w3.org/2000/svg"><g><path d="m399.207 319.889c-3.928-7.295-13.026-10.023-20.318-6.096l-233.705 125.841 14.223 26.414 233.705-125.841c7.294-3.928 10.023-13.024 6.095-20.318z" fill="#e2e7fa"/><path d="m378.889 313.793-122.889 66.171v34.072l137.111-73.829c7.294-3.928 10.023-13.024 6.096-20.318-3.928-7.295-13.026-10.024-20.318-6.096z" fill="#c5d2e5"/><path d="m133.111 313.793c-7.293-3.93-16.391-1.198-20.318 6.096-3.928 7.294-1.199 16.391 6.096 20.318l233.705 125.841 14.223-26.414z" fill="#f5f5ff"/><g fill="#e2e7fa"><path d="m256 414.036 96.593 52.012 14.223-26.414-110.816-59.67z"/><path d="m181 15v262c0 8.284 6.716 15 15 15s15-6.716 15-15v-262z"/><path d="m91 15v60c0 8.284 6.716 15 15 15s15-6.716 15-15v-60z"/></g><path d="m126 170h-40c-8.284 0-15-6.716-15-15v-80c0-8.284 6.716-15 15-15h40c8.284 0 15 6.716 15 15v80c0 8.284-6.716 15-15 15z" fill="#ef5ca2"/><path d="m316 30h-240c-8.284 0-15-6.716-15-15s6.716-15 15-15h240c8.284 0 15 6.716 15 15s-6.716 15-15 15z" fill="#f5f5ff"/><path d="m316 0h-60v30h60c8.284 0 15-6.716 15-15s-6.716-15-15-15z" fill="#e2e7fa"/><path d="m55 192h-40v90h100c8.284 0 15-6.716 15-15 0-41.355-33.645-75-75-75z" fill="#f5f5ff"/><path d="m15 282c-8.284 0-15-6.716-15-15v-100c0-8.284 6.716-15 15-15s15 6.716 15 15v100c0 8.284-6.716 15-15 15z" fill="#6b61b1"/><path d="m496.275 152.017c-8.068.38-14.275 7.33-14.275 15.407v24.576h-185c-8.284 0-15 6.716-15 15v60c0 8.284 6.716 15 15 15h200c8.284 0 15-6.716 15-15v-100c0-8.525-7.111-15.389-15.725-14.983zm-147.608 114.983h-36.667v-45h36.667zm66.666 0h-36.667v-45h36.667zm66.667 0h-36.667v-45h36.667z" fill="#453d81"/><path d="m386 512c-24.813 0-45-20.187-45-45s20.187-45 45-45 45 20.187 45 45-20.187 45-45 45zm0-60c-8.271 0-15 6.729-15 15s6.729 15 15 15 15-6.729 15-15-6.729-15-15-15z" fill="#453d81"/><path d="m126 512c-24.813 0-45-20.187-45-45s20.187-45 45-45 45 20.187 45 45-20.187 45-45 45zm0-60c-8.271 0-15 6.729-15 15s6.729 15 15 15 15-6.729 15-15-6.729-15-15-15z" fill="#6b61b1"/><path d="m0 267v30c0 24.813 20.187 45 45 45h422c24.813 0 45-20.187 45-45v-30z" fill="#9ddff6"/><path d="m256 342h211c24.813 0 45-20.187 45-45v-30h-256z" fill="#6ba7ff"/></g></svg>